<svg viewBox="0 0 64 64" xmlns="http://www.w3.org/2000/svg">
    <g data-name="Layer 2">
        <path d="M52.88 4.7a2.43 2.43 0 0 0-3.44 0l-6.11 6.11a2.43 2.43 0 0 0 0 3.44l.06.06a.53.53 0 0 1 0 .75L32 26.47a1.66 1.66 0 0 1-1.79-.37 1.66 1.66 0 0 1 0-2.35l2.6-2.6A.7.7 0 0 0 32.5 20c-4.12-1.43-8.22-1-10.81 1.61a8.16 8.16 0 0 0-2.21 4.29 2.51 2.51 0 0 1-2.76 2 11.48 11.48 0 0 0-9.6 2.94c-5.2 5.2-3.56 15.27 3.67 22.5s17.3 8.87 22.5 3.67a11.48 11.48 0 0 0 2.94-9.6 2.51 2.51 0 0 1 2-2.76 8.16 8.16 0 0 0 4.29-2.21c3-3 3.12-7.91.86-12.59a3.6 3.6 0 0 1 .7-4.11l5-5a.53.53 0 0 1 .74 0 2.43 2.43 0 0 0 3.44 0l6.11-6.11a2.43 2.43 0 0 0 0-3.44ZM29.46 44h-8A1.44 1.44 0 0 1 20 42.52v-7.75a4.15 4.15 0 0 1 3.78-4.22 4 4 0 0 1 4.21 4V36h1.2a4.15 4.15 0 0 1 4.22 3.79A4 4 0 0 1 29.46 44Z"
              fill="#fafafa" class="fill-0072ff"></path>
        <circle cx="50.06" cy="29.98" r="2" fill="#fafafa" class="fill-0072ff"></circle>
        <circle cx="9.06" cy="21.66" r="2" fill="#fafafa" class="fill-0072ff"></circle>
        <circle cx="14.06" cy="15.98" r="1" fill="#fafafa" class="fill-0072ff"></circle>
        <circle cx="49.06" cy="47.98" r="1" fill="#fafafa" class="fill-0072ff"></circle>
        <circle cx="13.06" cy="8.98" r="1" fill="#fafafa" class="fill-0072ff"></circle>
        <circle cx="42.37" cy="50.98" r="1" fill="#fafafa" class="fill-0072ff"></circle>
        <path d="M26.44 9a.63.63 0 0 0 0-.89l-.52-.52a.63.63 0 0 0-.89 0l-.52.52a.63.63 0 0 1-.89 0l-.52-.52a.63.63 0 0 0-.89 0l-.52.52a.63.63 0 0 0 0 .89l.52.52a.63.63 0 0 1 0 .89l-.52.52a.63.63 0 0 0 0 .89l.52.52a.63.63 0 0 0 .89 0l.52-.52a.63.63 0 0 1 .89 0l.52.52a.63.63 0 0 0 .89 0l.52-.52a.63.63 0 0 0 0-.89l-.52-.52a.63.63 0 0 1 0-.89ZM53.23 37.39v.45a.38.38 0 0 0 .38.38h.45a.38.38 0 0 1 .38.38v.4a.38.38 0 0 0 .38.38h.45a.38.38 0 0 0 .38-.38v-.45a.38.38 0 0 1 .38-.38h.45a.38.38 0 0 0 .38-.38v-.45a.38.38 0 0 0-.38-.38H56a.38.38 0 0 1-.38-.38v-.45a.38.38 0 0 0-.38-.38h-.45a.38.38 0 0 0-.38.38v.45a.38.38 0 0 1-.38.38h-.45a.38.38 0 0 0-.35.43Z"
              fill="#fafafa" class="fill-0072ff"></path>
        <circle cx="42.37" cy="8.98" r="1" fill="#fafafa" class="fill-0072ff"></circle>
        <circle cx="44.37" cy="6.98" r="1" fill="#fafafa" class="fill-0072ff"></circle>
        <circle cx="46.37" cy="4.98" r="1" fill="#fafafa" class="fill-0072ff"></circle>
        <circle cx="55.04" cy="21.66" r="1" fill="#fafafa" class="fill-0072ff"></circle>
        <circle cx="57.04" cy="19.66" r="1" fill="#fafafa" class="fill-0072ff"></circle>
        <circle cx="59.04" cy="17.66" r="1" fill="#fafafa" class="fill-0072ff"></circle>
    </g>
</svg>