<svg width="512" height="512" viewBox="0 0 512 512" fill="none" xmlns="http://www.w3.org/2000/svg">
<path d="M134.2 364.4C134.5 364.7 134.7 364.9 135 365.1C164.3 394.1 204.6 412 249 412C268.5 412 287.6 408.6 305.6 401.8C318.2 415.9 336.4 424.7 356.7 424.7C394.5 424.7 425.3 393.9 425.3 356.1C425.3 335.5 416.2 317 401.7 304.4C408 286.9 411.2 268.5 411.2 249.6C411.2 205.2 393.3 165 364.3 135.6C364.1 135.3 363.9 135 363.6 134.8C363.3 134.5 363.1 134.3 362.8 134.1C333.5 105.1 293.2 87.2 248.8 87.2C204.4 87.2 164.2 105.1 134.8 134.1C134.5 134.3 134.2 134.5 134 134.8C133.7 135.1 133.5 135.3 133.3 135.6C104.3 164.9 86.4 205.2 86.4 249.6C86.4 294 104.3 334.2 133.3 363.6C133.7 363.9 133.9 364.2 134.2 364.4ZM410.4 356.1C410.4 385.7 386.3 409.7 356.8 409.7C327.3 409.7 303.2 385.6 303.2 356.1C303.2 326.6 327.3 302.5 356.8 302.5C386.3 302.5 410.4 326.5 410.4 356.1ZM356.7 287.5C318.9 287.5 288.1 318.3 288.1 356.1C288.1 368.1 291.2 379.3 296.6 389.1C283.7 393.5 270.2 396.1 256.5 396.8V370C256.5 365.9 253.1 362.5 249 362.5C244.9 362.5 241.5 365.9 241.5 370V396.8C206.5 395 174.7 381 150.3 359L169.2 340.1C172.1 337.2 172.1 332.4 169.2 329.5C166.3 326.6 161.5 326.6 158.6 329.5L139.7 348.4C117.6 324 103.6 292.2 101.9 257.2H128.7C132.8 257.2 136.2 253.8 136.2 249.7C136.2 245.6 132.8 242.2 128.7 242.2H101.9C103.7 207.2 117.7 175.4 139.7 151L158.6 169.9C160.1 171.4 162 172.1 163.9 172.1C165.8 172.1 167.7 171.4 169.2 169.9C172.1 167 172.1 162.2 169.2 159.3L150.3 140.4C174.7 118.3 206.5 104.3 241.5 102.6V129.4C241.5 133.5 244.9 136.9 249 136.9C253.1 136.9 256.5 133.5 256.5 129.4V102.6C291.5 104.4 323.3 118.4 347.7 140.4L328.8 159.3C325.9 162.2 325.9 167 328.8 169.9C330.3 171.4 332.2 172.1 334.1 172.1C336 172.1 337.9 171.4 339.4 169.9L358.3 151C380.4 175.4 394.4 207.2 396.1 242.2H369.3C365.2 242.2 361.8 245.6 361.8 249.7C361.8 253.8 365.2 257.2 369.3 257.2H396.1C395.4 270.3 393.1 283.2 389 295.6C379.4 290.4 368.4 287.5 356.7 287.5Z" fill="#3563E9"/>
<path d="M249 165.4C244.9 165.4 241.5 168.8 241.5 172.9V253.1L202.7 291.9C199.8 294.8 199.8 299.6 202.7 302.5C204.2 304 206.1 304.7 208 304.7C209.9 304.7 211.8 304 213.3 302.5L254.3 261.5C255.7 260.1 256.5 258.2 256.5 256.2V172.9C256.5 168.8 253.1 165.4 249 165.4Z" fill="#3563E9"/>
<path d="M338.9 367.9L342.4 365C347.9 360.1 352.5 355 352.5 348.7C352.5 341.8 347.8 336.8 339.2 336.8C334.1 336.8 329.7 338.5 326.8 340.7L329.3 347C331.3 345.5 334.1 343.9 337.4 343.9C341.8 343.9 343.6 346.3 343.6 349.4C343.5 353.8 339.5 358.1 331.2 365.5L326.3 369.9V375.3H353.1V368H338.8V367.9H338.9Z" fill="#3563E9"/>
<path d="M382.7 337.5H371.9L357.6 360.6V366.4H374.4V375.4H382.8V366.4H387.3V359.8H382.8V337.5H382.7ZM374.3 351.3V359.7H365.8V359.6L370.9 351.3C372.2 348.9 373.2 346.7 374.4 344.3H374.6C374.4 346.7 374.3 349 374.3 351.3Z" fill="#3563E9"/>
</svg>
