<svg width="512" height="512" viewBox="0 0 512 512" fill="none" xmlns="http://www.w3.org/2000/svg">
<path d="M313.2 183.3H192.4C192.4 183.3 192.4 183.3 192.3 183.3H174C161.3 183.3 151 193.6 151 206.3V289.8C151 302.5 161.3 312.8 174 312.8H192.3H313.2H331.5C344.2 312.8 354.5 302.5 354.5 289.8V206.3C354.5 193.6 344.2 183.3 331.5 183.3H313.2ZM339.5 229.2V266.8C322.2 267.6 308.1 280.8 305.9 297.7H199.6C197.4 280.8 183.3 267.6 166 266.8V229.2C183.3 228.4 197.4 215.2 199.6 198.3H305.9C308.1 215.2 322.2 228.4 339.5 229.2ZM174 198.3H184.4C182.4 206.9 175 213.4 166 214.2V206.3C166 201.9 169.6 198.3 174 198.3ZM166 289.7V281.8C175 282.5 182.4 289.1 184.4 297.7H174C169.6 297.7 166 294.1 166 289.7ZM331.6 297.7H321.2C323.2 289.1 330.6 282.6 339.6 281.8V289.7C339.5 294.1 336 297.7 331.6 297.7ZM339.5 206.2V214.1C330.5 213.4 323.1 206.8 321.1 198.2H331.5C336 198.3 339.5 201.9 339.5 206.2Z" fill="#3563E9"/>
<path d="M252.8 280.7C270.8 280.7 285.5 266 285.5 248C285.5 230 270.8 215.3 252.8 215.3C234.8 215.3 220.1 230 220.1 248C220.1 266 234.7 280.7 252.8 280.7ZM252.8 230.3C262.6 230.3 270.5 238.2 270.5 248C270.5 257.8 262.6 265.7 252.8 265.7C243 265.7 235.1 257.8 235.1 248C235.1 238.2 243 230.3 252.8 230.3Z" fill="#3563E9"/>
<path d="M256.1 424.2C301 424.2 343.2 406.7 375 374.9C404.5 345.4 421.9 306.2 424 264.5C424.2 260.4 421 256.8 416.9 256.6C412.8 256.4 409.2 259.6 409 263.7C407.1 301.6 391.2 337.3 364.3 364.2C335.4 393.1 296.9 409.1 256 409.1C215.1 409.1 176.6 393.2 147.7 364.2C88 304.5 88 207.3 147.7 147.6C198.6 96.7 277.8 88.2 338 126.5L321.1 147.2L369.6 142.3L364.7 93.8L347.6 114.8C281.3 71.6 193.4 80.7 137.1 137C71.5 202.6 71.5 309.2 137.1 374.8C169 406.7 211.2 424.2 256.1 424.2Z" fill="#3563E9"/>
</svg>
