<svg width="512" height="512" viewBox="0 0 512 512" fill="none" xmlns="http://www.w3.org/2000/svg">
<path d="M410.9 186.6C410.9 186.5 410.9 186.4 410.8 186.4C410.8 186.2 410.7 186.1 410.7 185.9C410.7 185.8 410.6 185.6 410.6 185.5C410.6 185.4 410.5 185.3 410.5 185.2C410.3 184.7 410.1 184.3 409.8 183.9L344.8 88.4C343.4 86.3 341.1 85.1 338.6 85.1H275H237.1H173.5C171 85.1 168.7 86.3 167.3 88.4L102.3 183.9C102 184.3 101.8 184.8 101.6 185.2C101.6 185.3 101.5 185.4 101.5 185.5C101.4 185.6 101.4 185.8 101.4 185.9C101.4 186.1 101.3 186.2 101.3 186.4C101.3 186.5 101.3 186.6 101.2 186.6C101.1 187.1 101 187.6 101 188.1V419.4C101 423.5 104.4 426.9 108.5 426.9H403.6C407.7 426.9 411.1 423.5 411.1 419.4V188.1C411 187.6 411 187.1 410.9 186.6ZM389.3 180.6H292.4L283.3 100.1H334.5L389.3 180.6ZM233.7 195.6H278.2V250.6L260.3 238C259 237.1 257.5 236.6 256 236.6C254.5 236.6 253 237.1 251.7 238L233.8 250.6V195.6H233.7ZM268.2 100.1L277.3 180.6H234.6L243.7 100.1H268.2ZM177.5 100.1H228.7L219.6 180.6H122.7L177.5 100.1ZM396 411.9H116V195.6H218.8V265C218.8 267.8 220.4 270.4 222.8 271.7C225.3 273 228.3 272.8 230.6 271.2L256 253.3L281.4 271.2C282.7 272.1 284.2 272.6 285.7 272.6C286.9 272.6 288.1 272.3 289.2 271.8C291.7 270.5 293.2 267.9 293.2 265.1V195.7H396V411.9Z" fill="#3563E9"/>
<path d="M201 330.4H147.8C143.7 330.4 140.3 333.8 140.3 337.9C140.3 342 143.7 345.4 147.8 345.4H201C205.1 345.4 208.5 342 208.5 337.9C208.5 333.8 205.1 330.4 201 330.4Z" fill="#3563E9"/>
<path d="M174.4 361.9H147.8C143.7 361.9 140.3 365.3 140.3 369.4C140.3 373.5 143.7 376.9 147.8 376.9H174.4C178.5 376.9 181.9 373.5 181.9 369.4C181.9 365.3 178.5 361.9 174.4 361.9Z" fill="#3563E9"/>
</svg>
