<svg width="512" height="512" viewBox="0 0 512 512" fill="none" xmlns="http://www.w3.org/2000/svg">
<path d="M234.594 272.031V336.156" stroke="#3563E9" stroke-width="15" stroke-linecap="round" stroke-linejoin="round"/>
<path d="M202.531 304.094H266.656" stroke="#3563E9" stroke-width="15" stroke-linecap="round" stroke-linejoin="round"/>
<path d="M234.594 357.531C264.106 357.531 288.031 333.606 288.031 304.094C288.031 274.581 264.106 250.656 234.594 250.656C205.081 250.656 181.156 274.581 181.156 304.094C181.156 333.606 205.081 357.531 234.594 357.531Z" stroke="#3563E9" stroke-width="15" stroke-linejoin="round"/>
<path d="M357.5 122.406H368.188" stroke="#3563E9" stroke-width="15" stroke-linecap="round" stroke-linejoin="round"/>
<path d="M400.25 101.031H410.938" stroke="#3563E9" stroke-width="15" stroke-linecap="round" stroke-linejoin="round"/>
<path d="M400.25 143.781H410.938" stroke="#3563E9" stroke-width="15" stroke-linecap="round" stroke-linejoin="round"/>
<path d="M325.438 111.719H341.469V133.094H325.438" stroke="#3563E9" stroke-width="15" stroke-linejoin="round"/>
<path d="M255.969 186.531V159.812C255.969 155.561 257.658 151.483 260.664 148.477C263.671 145.47 267.748 143.781 272 143.781H309.406V101.031H181.156C169.818 101.031 158.945 105.535 150.927 113.552C142.91 121.57 138.406 132.443 138.406 143.781V149.125H197.188C201.439 149.125 205.517 150.814 208.523 153.82C211.53 156.827 213.219 160.904 213.219 165.156V186.531" stroke="#3563E9" stroke-width="15" stroke-linejoin="round"/>
<path d="M341.469 218.594C314.75 218.594 293.375 194.654 293.375 165.156" stroke="#3563E9" stroke-width="15" stroke-linecap="round" stroke-linejoin="round"/>
<path d="M160.102 410.969C154.448 410.824 149.061 408.535 145.032 404.566C141.004 400.597 138.635 395.245 138.406 389.594C138.406 275.879 169.24 186.531 202.531 186.531H266.656C269.491 186.531 272.209 187.657 274.213 189.662C276.218 191.666 277.344 194.384 277.344 197.219V229.281C277.344 232.116 278.47 234.834 280.474 236.838C282.478 238.843 285.197 239.969 288.031 239.969C309.78 239.969 330.781 305.483 330.781 389.594C330.539 395.249 328.159 400.602 324.122 404.57C320.084 408.538 314.691 410.825 309.032 410.969H160.102Z" stroke="#3563E9" stroke-width="15" stroke-linejoin="round"/>
<path d="M213.219 165.156H255.969" stroke="#3563E9" stroke-width="15" stroke-linejoin="round"/>
</svg>
