<svg width="512" height="512" viewBox="0 0 512 512" fill="none" xmlns="http://www.w3.org/2000/svg">
<path d="M395.6 425.7C399.7 425.7 403.1 422.3 403.1 418.2V175.9C403.1 175.8 403.1 175.6 403.1 175.5C403.1 173.5 402.3 171.6 401 170.3L331.1 89.2L331 89.1C331 89.1 331 89.1 330.9 89C330.7 88.7 330.4 88.5 330.2 88.3C330.2 88.3 330.2 88.3 330.1 88.2C329.8 88 329.6 87.8 329.3 87.6L329.2 87.5C328.6 87.1 328 86.9 327.3 86.7H327.2C326.6 86.6 326 86.5 325.4 86.5H116.4C112.3 86.5 108.9 89.9 108.9 94V418.4C108.9 422.5 112.3 425.9 116.4 425.9H395.6V425.7ZM332.9 114L379.3 167.9H332.9V114ZM123.9 101.3H317.9V175.4C317.9 179.5 321.3 182.9 325.4 182.9H388.2V410.6H123.9V101.3Z" fill="#3563E9"/>
<path d="M183.8 265.1C162.7 265.1 145.6 282.2 145.6 303.3C145.6 312.6 148.9 321.1 154.5 327.7V383.1C154.5 385.9 156.1 388.5 158.6 389.8C161.1 391.1 164.1 390.9 166.4 389.2L183.9 376.7L201.3 389.2C202.6 390.1 204.1 390.6 205.7 390.6C206.9 390.6 208 390.3 209.1 389.8C211.6 388.5 213.2 385.9 213.2 383.1V327.7C218.7 321.1 222.1 312.6 222.1 303.3C222 282.3 204.9 265.1 183.8 265.1ZM183.8 280.1C196.6 280.1 207 290.5 207 303.3C207 316.1 196.6 326.5 183.8 326.5C177.4 326.5 171.5 323.9 167.3 319.6C167.3 319.6 167.3 319.6 167.2 319.5C163.1 315.3 160.6 309.6 160.6 303.3C160.6 290.5 171 280.1 183.8 280.1ZM188.2 361.3C185.6 359.4 182.1 359.4 179.4 361.3L169.4 368.5V338.7C173.8 340.5 178.7 341.5 183.7 341.5C188.8 341.5 193.6 340.5 198 338.7V368.5L188.2 361.3Z" fill="#3563E9"/>
<path d="M155.9 146.5H183.8C187.9 146.5 191.3 143.1 191.3 139C191.3 134.9 187.9 131.5 183.8 131.5H155.9C151.8 131.5 148.4 134.9 148.4 139C148.4 143.1 151.8 146.5 155.9 146.5Z" fill="#3563E9"/>
<path d="M263.7 163.5H155.9C151.8 163.5 148.4 166.9 148.4 171C148.4 175.1 151.8 178.5 155.9 178.5H263.7C267.8 178.5 271.2 175.1 271.2 171C271.2 166.9 267.8 163.5 263.7 163.5Z" fill="#3563E9"/>
<path d="M263.7 195.6H155.9C151.8 195.6 148.4 199 148.4 203.1C148.4 207.2 151.8 210.6 155.9 210.6H263.7C267.8 210.6 271.2 207.2 271.2 203.1C271.2 199 267.8 195.6 263.7 195.6Z" fill="#3563E9"/>
</svg>
