<svg viewBox="0 0 32 32" xmlns="http://www.w3.org/2000/svg">
    <g data-name="20. Delivery">
        <path d="M10 1h6v5.13a.87.87 0 0 1-.87.87h-4.26a.87.87 0 0 1-.87-.87V1Z" fill="#77acf1"
              class="fill-77acf1"></path>
        <path d="M11 26H3a3 3 0 0 1-3-3V3a3 3 0 0 1 3-3h20a3 3 0 0 1 3 3v8a1 1 0 0 1-2 0V3a1 1 0 0 0-1-1H3a1 1 0 0 0-1 1v20a1 1 0 0 0 1 1h8a1 1 0 0 1 0 2Z"
              fill="#3563e9" class="fill-04009a"></path>
        <path d="M7 22H5a1 1 0 0 1 0-2h2a1 1 0 0 1 0 2ZM23 32a9 9 0 1 1 9-9 9 9 0 0 1-9 9Zm0-16a7 7 0 1 0 7 7 7 7 0 0 0-7-7Z"
              fill="#3563e9" class="fill-04009a"></path>
        <path d="M20 27a1 1 0 0 1-.71-.29 1 1 0 0 1 0-1.42l2.71-2.7V19a1 1 0 0 1 2 0v4a1 1 0 0 1-.29.71l-3 3A1 1 0 0 1 20 27Z"
              fill="#77acf1" class="fill-77acf1"></path>
    </g>
</svg>